<svg xmlns="http://www.w3.org/2000/svg" xmlns:xlink="http://www.w3.org/1999/xlink" width="482.361" height="328.949" viewBox="0 0 482.361 328.949">
  <defs>
    <linearGradient id="linear-gradient" x1="0.5" x2="0.5" y2="1" gradientUnits="objectBoundingBox">
      <stop offset="0" stop-color="#c35dfe"/>
      <stop offset="1" stop-color="#2151e3"/>
    </linearGradient>
  </defs>
  <g id="Group_928" data-name="Group 928" transform="translate(-323 -220.161)">
    <path id="Path_438" data-name="Path 438" d="M3.66,229.719c8.424-13.759,27.473-11.361,40.981-4.178s26.988,17.9,41.854,15.844c12.535-1.738,22.814-12.669,28.367-25.279s7.183-26.829,8.745-40.756q2.946-26.244,5.887-52.522c.719-6.405,1.567-13.166,5.169-18.234,4.759-6.685,13.484-8.741,20.946-6.731s13.826,7.4,19.271,13.412c17.44,19.254,27.322,45.281,42.569,66.707,3.1,4.362,6.61,8.674,11.248,10.78,6.685,3.029,14.361.886,20.892-2.486,21.31-10.985,35.625-33.4,49.693-54.318,6.844-10.166,15.188-21.038,26.574-22.145,11.979-1.191,22.379,9.017,29.42,19.826,22.6,34.781,27.439,82.263,54.736,112.6a44.373,44.373,0,0,0,11.436,9.573,29.5,29.5,0,0,0,4.429,1.943c23.817,8.244,31.755,41.336,14.139,60.958-.38.418-.769.836-1.162,1.253-2.616,2.762-5.578,5.373-9.113,6.2-3.288.76-6.685-.117-9.944-1.065-20.833-6.08-41.416-15.372-62.955-14.921-20.959.418-40.839,10.1-61.564,13.584-13.935,2.344-28.112,1.876-42.2,1.37q-70.389-2.532-140.748-5.891c-23.282-1.07-46.572-2.089-69.849-3.28-17.933-.932-29.357-2.983-31.438-23.8C9.221,269.936-7.141,247.369,3.66,229.719Z" transform="translate(323.001 163.617)" fill="#6c63ff" opacity="0.1" style="isolation: isolate"/>
    <ellipse id="Ellipse_38" data-name="Ellipse 38" cx="112.811" cy="15.765" rx="112.811" ry="15.765" transform="translate(525.237 517.579)" fill="#fff"/>
    <path id="Path_439" data-name="Path 439" d="M148.74,586.486s5.515-1.254,9.13,2.453c0,0-2.323,2.089-7.788-.226Z" transform="translate(236.409 -121.152)" fill="#6c63ff"/>
    <path id="Path_440" data-name="Path 440" d="M144.656,586.64s-3.267,4.63-1.2,9.38c0,0,2.825-1.358,2.745-7.291Z" transform="translate(239.883 -121.361)" fill="#6c63ff"/>
    <path id="Path_441" data-name="Path 441" d="M138.48,567.645s1.96-4.241,11.282.886c0,0-1,2.833-4.964,2.875S139.65,569.729,138.48,567.645Z" transform="translate(242.382 -109.343)" fill="#6c63ff"/>
    <path id="Path_475" data-name="Path 475" d="M193.81,501.925s3.343-.765,5.524,1.483c0,0-1.408,1.253-4.709-.138Z" transform="translate(210.171 -71.97)" fill="#6c63ff"/>
    <path id="Path_476" data-name="Path 476" d="M191.358,502.03s-1.972,2.8-.719,5.67c0,0,1.7-.836,1.671-4.408Z" transform="translate(212.26 -72.104)" fill="#6c63ff"/>
    <path id="Path_477" data-name="Path 477" d="M187.62,490.535s1.182-2.561,6.811.539a3.032,3.032,0,0,1-3,1.734A3.66,3.66,0,0,1,187.62,490.535Z" transform="translate(213.775 -64.833)" fill="#6c63ff"/>
    <path id="Path_478" data-name="Path 478" d="M183.037,491.55s-2.825-.13-2.666,6.293a3.033,3.033,0,0,0,2.925-1.864A3.665,3.665,0,0,0,183.037,491.55Z" transform="translate(217.998 -66.002)" fill="#6c63ff"/>
    <path id="Path_479" data-name="Path 479" d="M182.03,475.923s1.283-4.467,7.2-1.747c0,0-1.032,4.091-6.514,3.192Z" transform="translate(217.029 -55.377)" fill="#6c63ff"/>
    <path id="Path_480" data-name="Path 480" d="M176.79,461.018s2.67-4.6,8.206-.869c0,0-1.567,4.262-7.651,2.411Z" transform="translate(220.079 -46.873)" fill="#6c63ff"/>
    <path id="Path_493" data-name="Path 493" d="M172.928,478.837s-4.1-2.181-6.268,3.969c0,0,3.664,2.089,6.823-2.474Z" transform="translate(225.977 -58.383)" fill="#6c63ff"/>
    <path id="Path_511" data-name="Path 511" d="M174.631,485.61a15.991,15.991,0,0,0-3.134.894c-22.538,9-22.162,67.915-22.162,67.915H142.7s-2.089-25.283-11.194-61.355c-8.2-32.453,25.438-61.539,32.269-67.054.769-.614,1.2-.94,1.2-.94C198.853,437.521,174.631,485.61,174.631,485.61Z" transform="translate(247.187 -27.3)" fill="#afc0e0"/>
    <path id="Path_512" data-name="Path 512" d="M167.465,426.105c-.781-.359-1.588-.7-2.444-1.015,0,0-.418.326-1.195.94-6.832,5.515-40.471,34.6-32.269,67.054,9.1,36.072,11.173,61.346,11.173,61.346h3.731s-2.068-25.283-11.194-61.355C127.1,460.773,160.412,431.8,167.465,426.105Z" transform="translate(247.158 -27.312)" fill="#fff" opacity="0.2" style="isolation: isolate"/>
    <path id="Path_513" data-name="Path 513" d="M432.262,493.073c-9.125,36.072-11.181,61.346-11.181,61.346h-6.648s.418-61.572-23.7-68.445a13.228,13.228,0,0,0-1.592-.372S364.9,437.513,398.8,425.07c0,0,.343.255.961.752C406.038,430.849,440.556,460.243,432.262,493.073Z" transform="translate(101.344 -27.3)" fill="#afc0e0"/>
    <path id="Path_514" data-name="Path 514" d="M221.375,485.622a15.99,15.99,0,0,0-3.134.894,409.164,409.164,0,0,1-7.722-60.486c.769-.614,1.2-.94,1.2-.94C245.6,437.533,221.375,485.622,221.375,485.622Z" transform="translate(200.443 -27.312)" opacity="0.1" style="isolation: isolate"/>
    <path id="Path_515" data-name="Path 515" d="M399.788,425.864a376.427,376.427,0,0,1-9.029,60.168,13.239,13.239,0,0,0-1.592-.372s-24.234-48.089,9.66-60.532C398.815,425.112,399.157,425.367,399.788,425.864Z" transform="translate(101.327 -27.334)" opacity="0.1" style="isolation: isolate"/>
    <path id="Path_516" data-name="Path 516" d="M289.311,247.266q-3.51,13.847-8.227,28.413c-4.717,14.566-14.925,15.548-50.976,0a273.444,273.444,0,0,1-7.563-27.414c-8.72-37.952-19.179-110.275,3.1-184.562A276.5,276.5,0,0,1,253.72,0s19.037,21.857,33.009,63.691S309.593,167.343,289.311,247.266Z" transform="translate(199.398 220.161)" fill="#e3e8f4"/>
    <circle id="Ellipse_39" data-name="Ellipse 39" cx="29.929" cy="29.929" r="29.929" transform="translate(426.218 312.907)" fill="#afc0e0"/>
    <path id="Path_517" data-name="Path 517" d="M310.318,264.072a21.226,21.226,0,0,1-34.68,16.417,21.452,21.452,0,0,1-3.978-4.316,20.894,20.894,0,0,1-1.37-2.252,21.182,21.182,0,0,1-2.419-9.848v-.506a21.251,21.251,0,0,1,15.46-19.939,21.947,21.947,0,0,1,5.114-.777h.635a21.226,21.226,0,0,1,21.239,21.213Z" transform="translate(167.056 78.782)" fill="url(#linear-gradient)"/>
    <path id="Path_518" data-name="Path 518" d="M305.276,63.691c-33.957,16.258-61.1,0-61.1,0A276.5,276.5,0,0,1,272.271,0S291.308,21.857,305.276,63.691Z" transform="translate(180.847 220.161)" fill="#afc0e0"/>
    <path id="Path_519" data-name="Path 519" d="M303.542,591.78q-2.382,9.376-5.306,19.074-1.387,4.625-2.925,9.326c-1.538,4.7-14.925,15.548-50.976,0,0,0-1.17-3.3-2.925-9.326-1.312-4.554-2.946-10.659-4.65-18.088,0,0,13.421,5.729,32.47,5.729A89.455,89.455,0,0,0,303.542,591.78Z" transform="translate(185.167 -124.353)" fill="#afc0e0"/>
    <path id="Path_520" data-name="Path 520" d="M304.716,637.43q-1.387,4.625-2.925,9.326c-1.538,4.7-14.925,15.548-50.976,0,0,0-1.17-3.3-2.925-9.326C247.886,637.43,284.63,648,304.716,637.43Z" transform="translate(178.687 -150.929)" fill="#e3e8f4"/>
    <path id="Path_521" data-name="Path 521" d="M283.354,243.557l-.046.033L267.89,263.5V264a21.181,21.181,0,0,0,2.419,9.848l18.167-31.07Z" transform="translate(167.044 78.823)" fill="#fff" opacity="0.2" style="isolation: isolate"/>
    <path id="Path_522" data-name="Path 522" d="M293.545,285.474l-12.627,18.907a21.452,21.452,0,0,1-3.978-4.316l15.042-16.145Z" transform="translate(161.775 54.872)" fill="#fff" opacity="0.2" style="isolation: isolate"/>
    <path id="Path_523" data-name="Path 523" d="M238.143,275.676a273.865,273.865,0,0,1-7.563-27.414c-8.72-37.956-19.179-110.279,3.1-184.566A277.5,277.5,0,0,1,258.274,6c-2.829-3.965-4.6-5.988-4.6-5.988A276.479,276.479,0,0,0,225.6,63.7c-22.283,74.287-11.825,146.61-3.1,184.566a273.87,273.87,0,0,0,7.563,27.414c14.244,6.138,25.187,7.425,33.218,6.74C256.415,281.894,248.083,279.959,238.143,275.676Z" transform="translate(199.427 220.155)" fill="#fff" opacity="0.2" style="isolation: isolate"/>
    <path id="Path_528" data-name="Path 528" d="M934.786,641.539c1.893,3.138,13.07,8.8,13.07,8.8s.184-12.535-1.709-15.669a6.637,6.637,0,1,0-11.361,6.865Z" transform="translate(-235.642 -147.458)" fill="#6c63ff"/>
    <path id="Path_531" data-name="Path 531" d="M972.4,686.268c-3.556.894-15.481-2.95-15.481-2.95s8.687-9.029,12.243-9.919a6.635,6.635,0,1,1,3.238,12.869Z" transform="translate(-249.085 -171.751)" fill="#6c63ff"/>
    <path id="Path_535" data-name="Path 535" d="M934.786,641.539c1.893,3.138,13.07,8.8,13.07,8.8s.184-12.535-1.709-15.669a6.637,6.637,0,1,0-11.361,6.865Z" transform="translate(-235.642 -147.458)" opacity="0.25" style="isolation: isolate"/>
    <path id="Path_538" data-name="Path 538" d="M972.4,686.268c-3.556.894-15.481-2.95-15.481-2.95s8.687-9.029,12.243-9.919a6.635,6.635,0,1,1,3.238,12.869Z" transform="translate(-249.085 -171.751)" opacity="0.25" style="isolation: isolate"/>
    <path id="Path_543" data-name="Path 543" d="M966.265,648.659c.46,3.639,8.382,13.346,8.382,13.346s5.248-11.378,4.784-15.017a6.636,6.636,0,1,0-13.166,1.671Z" transform="translate(-254.495 -153.116)" fill="#6c63ff"/>
    <path id="Path_547" data-name="Path 547" d="M800.806,652.385s-2.783,16.81-16.91,19.3-61.28,1.989-61.28,1.989-26.959-3.877-36.707-26.658-16.016-31.835-7.659-32.232S731.671,630,734.241,630.2,803.292,595.58,800.806,652.385Z" transform="translate(-84.586 -137.738)" fill="#a9a4c2"/>
    <path id="Path_549" data-name="Path 549" d="M673.627,714.051a6.45,6.45,0,0,0,5.281,3.974,6.858,6.858,0,0,0,1.7-.092c5.173-.894,17.311-2.983,21.585-2.189,2.574.481,7.333-.23,10.722-.869,2.256-.418,3.9-.836,3.9-.836s-3.978-13.229-4.479-13.626-17.9-10.843-17.9-10.843l-13.789-.99H680.6a7.248,7.248,0,0,0-4.671,2.745c-1.458,1.759-2.708,4.651-2.791,9.389C672.95,712.359,673.627,714.051,673.627,714.051Z" transform="translate(-83.86 -180.707)" fill="#2f2e41"/>
    <path id="Path_550" data-name="Path 550" d="M673.629,714.069a6.45,6.45,0,0,0,5.281,3.974,56.643,56.643,0,0,1-3.761-5.465l.071-9.648a16.959,16.959,0,0,1,5.432-14.319h-.042s-7.262.493-7.463,12.117S673.629,714.069,673.629,714.069Z" transform="translate(-83.862 -180.724)" opacity="0.05" style="isolation: isolate"/>
    <path id="Path_551" data-name="Path 551" d="M806.291,657.032,819.122,647l20.194-19.9s-2.181-.1-5.469-.247c-.836.522-3.113,2.164-3.2,4.178-.1,2.432-5.461.167-8.244,1.559s-16.412,18.836-18.8,18.723-4.274-1.212-5.273.48c0,.038-.046.071-.071.109Z" transform="translate(-156.719 -144.776)" opacity="0.1" style="isolation: isolate"/>
    <path id="Path_552" data-name="Path 552" d="M679.88,691.333c.455.221.915.418,1.387.635,9.752,4.178,21.786,12.953,22.684,14.524.543.969,7.521,5.206,12.907,8.382,2.256-.418,3.9-.836,3.9-.836s-3.978-13.229-4.479-13.626-17.9-10.843-17.9-10.843l-13.789-.99h-.042A7.279,7.279,0,0,0,679.88,691.333Z" transform="translate(-87.802 -180.707)" opacity="0.1" style="isolation: isolate"/>
    <path id="Path_553" data-name="Path 553" d="M614.267,598.967c1.291,3.184,12.117,15.422,12.117,15.422s6.861,8.95,16.613,13.128,21.786,12.953,22.68,14.524c.577,1.024,8.357,5.7,13.822,8.921l1.224.715,2.716,1.575,1.437.836s3.343-2.674,6.648-5.365,6.531-5.327,6.585-5.478c.1-.3,1.387-3.681,1.09-3.878-.155-.1-.836-1.483-2.089-3.079a14.129,14.129,0,0,0-5.068-4.178,14.278,14.278,0,0,1-6.564-6.844s-.418-.318-1.1-.735a13.306,13.306,0,0,0-4.471-1.993c-2.194-.276-6.268-4.751-6.268-4.751a12.286,12.286,0,0,1-3.882-4.078c-1.045-2.181-16.471-12.777-17.9-13.755l37.4,24.017,8.95,5.754L711.042,619.7l20.2-19.9s-2.716-.134-6.685-.3c-9.815-.418-27.247-1.091-29.449-.593a16.782,16.782,0,0,1-5.474.355s-4.964.226-8.248-1.508-8.461-2.545-9.059-3.827-18.205-7.458-18.205-7.458-23.971-12.731-32.528-5.169S612.972,595.787,614.267,598.967Z" transform="translate(-49.248 -116.853)" fill="#d0cde1"/>
    <path id="Path_554" data-name="Path 554" d="M800.1,411.07l3.084,10.245,3.978,23.077,14.624.994,4.233-7.02,4.241-7.007s2.632-9.326,4.525-18.347c1.671-7.981,2.766-15.727.944-16.567-1.613-.748-2.674-3.435-3.343-6.326-.088-.355-.167-.719-.242-1.082a56.289,56.289,0,0,1-.969-7.417s-30.64-1.588-26.361,11.043a20.132,20.132,0,0,1,1.153,6.719,16.007,16.007,0,0,1-.1,1.709A14.332,14.332,0,0,1,800.1,411.07Z" transform="translate(-157.79 -1.968)" fill="#ee8e9e"/>
    <path id="Path_555" data-name="Path 555" d="M784.86,436.555l1.095,17.407,2.486,14.821,2.787,6.865,2.486,37.555s23.988,2.774,29.821-.05a2.567,2.567,0,0,0,1.057-.836c7.045-10.626,4.734-41.445,4.734-41.445l2.687-19.9-1.792-10.329-4.325-.46-3.343-.355s-.752.928-1.839,2.361c-2.95,3.894-8.357,11.553-8.01,14.75.493,4.379-.6,8.854-2.29,9.552s-3.084,1.889-3.38.7a5.409,5.409,0,0,1-.3-3.184c.3-1.692-1.3-6.865-1.3-6.865s-2.682-6.067-2.507-8.653-.3-5.574-1.095-6.268-1.889-1.4-.994-4.6-3.923-9.38-3.923-9.38Z" transform="translate(-148.918 -29.146)" fill="url(#linear-gradient)"/>
    <path id="Path_556" data-name="Path 556" d="M860.631,464.5l.994,29.746,5.745,3.184a2.569,2.569,0,0,0,1.057-.836c7.049-10.642,4.738-41.458,4.738-41.458l2.687-19.9-1.792-10.325-4.329-.46c1.671-7.981,2.766-15.727.948-16.567-1.617-.748-2.678-3.435-3.368-6.326h0l-3.092,21.059s.259,1.9.351,3.852a11.047,11.047,0,0,1-.251,3.706c-.7,1.793-.2,4.976-.2,4.976-1.792,3.159-2.687,9.013-3.125,14.666C860.405,457.337,860.631,464.5,860.631,464.5Z" transform="translate(-193.005 -13.614)" opacity="0.1" style="isolation: isolate"/>
    <path id="Path_557" data-name="Path 557" d="M868.169,400.46s5.014.623,6.6,2.712,5.77,2.377,5.77,2.377,4.776,1.592,4.676,1.989,1.391,1,4.379,1.793,7.939,3.681,7.939,4.379,7.859,8.453,7.859,9.251,2.39,3.76,2.089,9.05-.6,11.938.6,13.032,0,5.373,0,5.373a2.925,2.925,0,0,0-.063,3.184c.994,1.793-.2,9.255-.2,9.255l.1,7.759s-1.095,4.872.2,5.073-.2,2.386-.2,2.386-1.095,3.982.3,5.77,1.788,9.451,1.788,9.451l21.31,30.92s.3,5.67-6.464,5.57-6.685,1.3-6.468,2.586-1.889,2.687-1.889,2.687-2.687,1.391-1.095,3.084,6.167,5.57-1.391,8.156a18.041,18.041,0,0,1-2.189-3.978,45.045,45.045,0,0,1-1.592-5.369s-.7-7.563-2.089-8.557-1.2-5.77-1.2-5.77,1.989-3.878-.794-5.469S862.933,493.2,862.933,493.2l-.994-29.746s-.7-21.982,3.481-29.344c0,0-.5-3.184.2-4.972s-.1-7.563-.1-7.563Z" transform="translate(-193.765 -12.973)" fill="#02195c"/>
    <path id="Path_558" data-name="Path 558" d="M763.852,427.416s-10-2.06-12.685-.669-7.939,2.507-8.774,3.284-2.787.2-4.575,4.876-1.993,9.447-4.279,11.637-3.481,3.681-3.581,5.273.3,1.989-.6,2.507-2.189,2.586-1.792,3.384,20.729,18.28,20.729,18.28,1,6.685,1.893,8.357-.994,24.97-2.983,26.562,13.429,1.446,13.429,1.446.694-15.272,1.291-16.07-.418-17.131-.418-17.131-.1-13.926,1.2-17.608,1.149-15.9,1.149-15.9,1.145-7.341,2.536-9.054S763.852,427.416,763.852,427.416Z" transform="translate(-115.521 -27.996)" opacity="0.1" style="isolation: isolate"/>
    <path id="Path_559" data-name="Path 559" d="M763.142,426.706s-10-2.06-12.69-.669-7.939,2.486-8.754,3.284-2.783.2-4.6,4.872-1.989,9.451-4.279,11.641-3.481,3.681-3.581,5.273.3,1.989-.593,2.486-2.189,2.586-1.792,3.38,20.691,18.305,20.691,18.305.994,6.685,1.889,8.357-.994,24.966-2.983,26.558,13.429,1.446,13.429,1.446.7-15.272,1.3-16.066-.418-17.131-.418-17.131-.1-13.926,1.2-17.608,1.149-15.919,1.149-15.919,1.145-7.341,2.532-9.05S763.142,426.706,763.142,426.706Z" transform="translate(-115.108 -27.583)" fill="#02195c"/>
    <path id="Path_560" data-name="Path 560" d="M810.71,392.664a20.132,20.132,0,0,1,1.153,6.719,22.826,22.826,0,0,0,26.177-10.346,56.289,56.289,0,0,1-.969-7.417S806.436,380.033,810.71,392.664Z" transform="translate(-163.729 -1.968)" opacity="0.1" style="isolation: isolate"/>
    <path id="Path_561" data-name="Path 561" d="M775.1,338.752a22.78,22.78,0,1,0,.493-4.734A22.781,22.781,0,0,0,775.1,338.752Z" transform="translate(-143.236 36.224)" fill="#ee8e9e"/>
    <path id="Path_562" data-name="Path 562" d="M712.243,496.7l-5.469,1.692a2.836,2.836,0,0,1-1.095,2.983,3.329,3.329,0,0,0-1.391,2.988s-.6,2.185-1.989,2.683-2.29,3.76-2.29,3.76l-4.575,5.273s-1.692,1.391-1.391,2.089-1.792.894-1.792.894l1.095,17.725,9.451,1.792,5.85-.6,4.776-1.792,4.178-2.507,1.905-4.834,8.357-12.731Z" transform="translate(-95.004 -69.001)" fill="#02195c"/>
    <path id="Path_563" data-name="Path 563" d="M661.591,538.51S649.474,521,640.4,530.45s3.681,24.769,6.664,24.272,17.211-1.291,17.211-1.291Z" transform="translate(-62.954 -87.019)" fill="#ee8e9e"/>
    <rect id="Rectangle_105" data-name="Rectangle 105" width="25.663" height="29.165" rx="12.62" transform="matrix(0.743, -0.67, 0.67, 0.743, 569.629, 452.946)" fill="#30374e"/>
    <rect id="Rectangle_17" data-name="Rectangle 17" width="23.361" height="43.534" transform="translate(564.969 435.115) rotate(-33.675)" fill="#2c843a"/>
    <rect id="Rectangle_106" data-name="Rectangle 106" width="25.663" height="29.165" rx="12.62" transform="matrix(0.743, -0.67, 0.67, 0.743, 569.629, 452.946)" opacity="0.1" style="isolation: isolate"/>
    <rect id="Rectangle_17-2" data-name="Rectangle 17" width="23.361" height="43.534" transform="translate(570.162 430.674) rotate(-22.438)" fill="#63ce78"/>
    <path id="Path_564" data-name="Path 564" d="M676.78,553.825c-.1,13.133,27.059,15.915,27.059,15.915l6.936,1.1,3.109.493,1.3-12.819s-1.425-.213-3.2-.627c-2.628-.614-6.034-1.671-6.748-3.155C704.035,552.25,676.876,540.7,676.78,553.825Z" transform="translate(-85.997 -98.67)" fill="#ee8e9e"/>
    <path id="Path_567" data-name="Path 567" d="M803.551,658.386l12.832-10.028,20.2-19.9s-2.716-.134-6.685-.3a4.316,4.316,0,0,0-1.408,2.716c-.1,2.432-5.461.171-8.244,1.563s-16.413,18.832-18.8,18.719-4.274-1.212-5.273.48a.976.976,0,0,1-.071.113,2.829,2.829,0,0,1-1.517.9Z" transform="translate(-154.577 -145.532)" opacity="0.1" style="isolation: isolate"/>
    <path id="Path_568" data-name="Path 568" d="M754.15,648.05l6.447,20.583,1.011,3.234,3.071-.836,6.769-1.859L801.6,660.89a26.268,26.268,0,0,0,10.864-2.9,32.865,32.865,0,0,1,18.736-4.086c3.986.372,8.419-1.345,12.117-8.139,0,0,8.357-24.652-12.736-31.755s-22.1,3.76-22.1,3.76-.109.059-.284.176c-.836.522-3.113,2.164-3.2,4.178-.1,2.432-5.461.167-8.244,1.559s-16.412,18.836-18.8,18.723-4.274-1.212-5.273.481c0,.038-.046.071-.071.109-.735,1.015-2.95,1.253-4.417,1.291-.8.025-1.379,0-1.379,0l-.188.059-1.563.435Z" transform="translate(-131.04 -135.894)" fill="#d0cde1"/>
    <path id="Path_569" data-name="Path 569" d="M758.14,585.093l3.109.493,1.3-12.819s-1.425-.213-3.2-.627C759.811,573.916,758.742,580.839,758.14,585.093Z" transform="translate(-133.363 -112.919)" opacity="0.1" style="isolation: isolate"/>
    <path id="Path_570" data-name="Path 570" d="M839.552,454.374s9.251-2.687,6.965,23.578S827.1,520.826,827.1,520.826s-19.7,8.653-28.551,7.262-15.318-1.692-15.318-1.692a22.446,22.446,0,0,0-8.954-2.386c-4.972-.2-15.418-3.284-15.619-4.279s2.586-15.619,1.4-16.713c0,0,13.926.572,15.318,1.579s3.384.284,4.876,0,6.067-4.262,15.121-.781c0,0,3.084.3,4.274-.5a4.289,4.289,0,0,1,3.113-.2,8.763,8.763,0,0,0,2.16-1.095c.3-.4,2.687,0,2.687,0a1.057,1.057,0,0,0,1.415-.483,1.045,1.045,0,0,0,.077-.211,6.493,6.493,0,0,1,1.391-2.189s2.687-15.121,7.759-20.791a3.244,3.244,0,0,0,1.095-2.883C818.941,473.878,827.594,451.19,839.552,454.374Z" transform="translate(-133.657 -44.182)" fill="#02195c"/>
    <path id="Path_571" data-name="Path 571" d="M780.28,690.346l13.137,15.878c.05-.046.083-.079.083-.092.1-.3,1.391-3.681,1.095-3.882s-2.586-5.173-7.162-7.262a13.463,13.463,0,0,1-5.624-5.118Z" transform="translate(-146.252 -181.458)" opacity="0.1" style="isolation: isolate"/>
    <path id="Path_572" data-name="Path 572" d="M780.321,732.384l1.437.836s3.343-2.674,6.648-5.365,6.531-5.327,6.585-5.478c.1-.3,1.387-3.681,1.091-3.878-.155-.1-.836-1.483-2.089-3.079-8.908-2.507-3.238,3.69-2.482,3.974,0,0-10.864-2.507-11.44,9.322A13.927,13.927,0,0,0,780.321,732.384Z" transform="translate(-146.113 -195.985)" opacity="0.1" style="isolation: isolate"/>
    <path id="Path_573" data-name="Path 573" d="M792.588,737.407l1.893,1.095,19.22.5a37.13,37.13,0,0,0,6.794,3.267,5.817,5.817,0,0,0,.965.213,43.1,43.1,0,0,0,5.348.1c1.471-.038,2.612-.1,2.612-.1s-.911-24.234-1.6-26.741c-.326-1.22-1.935-.953-3.522-.343a23.077,23.077,0,0,0-3.439,1.742s-8.156.79-9.451,1.492-4.972-.418-7.262,0-6.364-2.7-6.364-2.7c-11.144-3.677-4.876,3.184-4.082,3.485,0,0-10.839-2.507-11.436,9.322S792.588,737.407,792.588,737.407Z" transform="translate(-147.395 -196.002)" fill="#2f2e41"/>
    <path id="Path_574" data-name="Path 574" d="M873.417,728.092c.209,5.014,4.116,11.236,6.443,14.524,1.471-.038,2.611-.1,2.611-.1s-.911-24.234-1.6-26.741c-.326-1.22-1.935-.953-3.522-.343C875.444,719.025,873.25,724.052,873.417,728.092Z" transform="translate(-200.468 -196.039)" fill="#565387"/>
    <path id="Path_575" data-name="Path 575" d="M873.417,728.092c.209,5.014,4.116,11.236,6.443,14.524,1.471-.038,2.611-.1,2.611-.1s-.911-24.234-1.6-26.741c-.326-1.22-1.935-.953-3.522-.343C875.444,719.025,873.25,724.052,873.417,728.092Z" transform="translate(-200.468 -196.039)" opacity="0.1" style="isolation: isolate"/>
    <path id="Path_576" data-name="Path 576" d="M865.119,728.757c1.32,4.839,1.308,10.266,3.414,13.546a5.819,5.819,0,0,0,.965.213,43.1,43.1,0,0,0,5.348.1c1.471-.038,2.611-.1,2.611-.1s-.911-24.234-1.6-26.741c-.326-1.22-1.935-.953-3.522-.343a23.068,23.068,0,0,0-3.439,1.742S863.431,722.564,865.119,728.757Z" transform="translate(-195.454 -196.039)" opacity="0.05" style="isolation: isolate"/>
    <path id="Path_577" data-name="Path 577" d="M707.05,630.58s9.535,3.1,17.616,14.094Z" transform="translate(-103.62 -146.941)" opacity="0.1" style="isolation: isolate"/>
    <g id="Group_922" data-name="Group 922" transform="translate(626.741 357.436)" opacity="0.1">
      <path id="Path_578" data-name="Path 578" d="M891.969,344.9a1.927,1.927,0,0,1-.058.209,6.822,6.822,0,0,1-.33.836A6.247,6.247,0,0,1,891.969,344.9Z" transform="translate(-837.787 -338.064)"/>
    </g>
    <path id="Path_580" data-name="Path 580" d="M885.067,517.258c-1.822,2.461-3.9,4.738-5.516,7.341a13.927,13.927,0,0,0-2.415,8.683c1.671-1.713,2.432-4.078,3.485-6.226,1.78-3.635,4.446-6.719,6.685-10.061.418-.639,3.18-4.325,1.788-4.5C887.95,512.348,885.69,516.418,885.067,517.258Z" transform="translate(-202.604 -78.194)" opacity="0.1" style="isolation: isolate"/>
    <ellipse id="Ellipse_8" data-name="Ellipse 8" cx="7.014" cy="6.442" rx="7.014" ry="6.442" transform="translate(579.918 440.653) rotate(-22.438)" fill="#fff"/>
    <path id="Path_581" data-name="Path 581" d="M119.171,106.214a12.46,12.46,0,0,1-4.848-1.11,6.491,6.491,0,0,1-1.659-9.611,12.418,12.418,0,0,1,2.3-1.851l4.979-3.389a24.347,24.347,0,0,1,7.025-3.729,21.926,21.926,0,0,1,7.182-.424,48.543,48.543,0,0,1,13.757,2.5,23.021,23.021,0,0,1,11.146,8.156c4.216,6.1,4.274,14.327,1.952,21.368s-9.572,10.069-15.2,14.632l1.868-6.453a4.063,4.063,0,0,0-1.276-2.634c-2.026-1.442-4.5,1.518-6.99,1.5a4.186,4.186,0,0,1-3.544-2.8,15.968,15.968,0,0,1-.785-4.707c-.3-3.371-1.475-8.061-4.667-9.92C127.436,106.007,122.514,106.518,119.171,106.214Z" transform="translate(489.714 318.366) rotate(-23)" fill="#2f2e41"/>
    <g id="Group_927" data-name="Group 927" transform="translate(-7)">
      <path id="Path_582" data-name="Path 582" d="M787.231,587.278l.676,38.551a4.653,4.653,0,0,0,4.536,4.735l66.689-.806a4.647,4.647,0,0,0,4.428-4.548l2.024-37.745a4.714,4.714,0,0,0-4.221-5.1c-.086,0-.172-.007-.258-.007H791.716a4.665,4.665,0,0,0-4.486,4.826C787.23,587.217,787.23,587.248,787.231,587.278Z" transform="translate(-53.23 -92.361)" fill="#2151e3"/>
      <circle id="Ellipse_40" data-name="Ellipse 40" cx="6" cy="6" r="6" transform="translate(766.999 509)" fill="#fff"/>
    </g>
  </g>
</svg>
